Coordinates
version=1
nRows=19
nColumns=36
inDegrees=yes

Units are S.I. units (second, meters, Newtons, ...)
If the header above contains a line with 'inDegrees', this indicates whether rotational values are in degrees (yes) or radians (no).

endheader
time	pelvis_tilt	pelvis_list	pelvis_rotation	pelvis_tx	pelvis_ty	pelvis_tz	hip_flexion_r	hip_adduction_r	hip_rotation_r	knee_angle_r	knee_angle_r_beta	ankle_angle_r	subtalar_angle_r	mtp_angle_r	hip_flexion_l	hip_adduction_l	hip_rotation_l	knee_angle_l	knee_angle_l_beta	ankle_angle_l	subtalar_angle_l	mtp_angle_l	lumbar_extension	lumbar_bending	lumbar_rotation	arm_flex_r	arm_add_r	arm_rot_r	elbow_flex_r	pro_sup_r	arm_flex_l	arm_add_l	arm_rot_l	elbow_flex_l	pro_sup_l
      3.76666670	     -8.86465518	      3.52577604	     -3.24915190	     -0.06905883	      1.31589537	     -0.05761624	     10.52498236	      0.85718513	     -1.18199711	     14.11185232	      0.24629829	     14.71868179	    -12.18526541	     -7.49999987	     13.05820142	     -0.62494177	      1.92487803	     19.08613674	      0.33311593	     21.67559297	     -0.46083970	     -7.49999987	    -10.78170636	      0.36716558	      0.97961426	      0.94205633	     -7.25654433	     -4.36383527	     31.99614233	     89.46486722	     -0.54448790	     -4.89283521	     -4.55426227	     31.66765360	     94.63518428
      3.78333330	     -9.26765445	      3.53947143	     -3.27676100	     -0.06615663	      1.31576813	     -0.05811624	     10.83760462	      0.75445051	     -1.47362296	     14.04923108	      0.24520534	     14.49994890	    -12.36642152	     -7.49999987	     13.28082476	     -0.58294297	      1.80042555	     18.95310018	      0.33079400	     21.73142533	     -0.49547154	     -7.49999987	    -11.07924783	      0.32863255	      0.82149374	      0.83591810	     -7.24473826	     -4.37148336	     32.87471020	     88.83385157	     -0.49159960	     -5.03663476	     -4.70240865	     32.11730582	     93.81784535
      3.80000000	     -9.67575947	      3.56558633	     -3.33192272	     -0.06343560	      1.31421063	     -0.05915746	     11.27219633	      0.67852272	     -1.48426897	     14.47508365	      0.25263787	     14.33492927	    -12.86933752	     -7.49999987	     13.50009780	     -0.53442607	      1.75369682	     18.96761753	      0.33104738	     21.78547763	     -0.55111460	     -7.49999987	    -11.44724374	      0.16740137	      0.71282443	      0.88369390	     -7.19652029	     -4.28822745	     33.81205748	     87.90154395	     -0.30364172	     -5.16900618	     -4.83753133	     32.41701762	     92.88682249
      3.81666670	    -10.11991720	      3.57003577	     -3.34414550	     -0.06183769	      1.31605172	     -0.06074469	     11.85218591	      0.65826152	     -1.33751537	     14.97523299	      0.26136712	     14.73006468	    -12.86312634	     -7.49999987	     13.87478506	     -0.48873114	      1.73425267	     19.04973050	      0.33248052	     21.96307278	     -0.54869106	     -7.49999987	    -11.89111317	      0.10811160	      0.57789066	      0.92078894	     -7.20399033	     -4.13993806	     34.63915981	     87.54917946	      0.01673336	     -5.32689905	     -4.90059186	     32.61293064	     92.50606515
      3.83333330	    -10.58630429	      3.59679727	     -3.15608263	     -0.06238463	      1.30600860	     -0.06331411	     12.50042080	      0.57562684	     -1.16957255	     15.66679616	      0.27343718	     15.16043130	    -12.88313854	     -7.49999987	     14.29626617	     -0.34829450	      1.87879988	     19.21717343	      0.33540295	     22.44335314	     -0.54007615	     -7.49999987	    -12.35470720	      0.03533475	      0.37645837	      1.15878004	     -7.17996752	     -4.05165867	     35.12912868	     87.70155728	      0.55910960	     -5.52770950	     -4.90151865	     32.87603441	     92.65115395
      3.85000000	    -11.48361412	      3.59571589	     -2.98206119	     -0.05826736	      1.30817753	     -0.06443613	     13.47195267	      0.42478452	     -1.42878987	     16.39215903	      0.28609715	     15.44063049	    -13.05543061	     -7.49999987	     15.10958458	     -0.28271965	      1.83184836	     19.28097983	      0.33651658	     22.71503102	     -0.51211350	     -7.49999987	    -12.28648645	      0.04609316	      0.26063869	      0.97776974	     -7.18931054	     -3.93196890	     36.34006613	     86.92317724	      0.61892278	     -5.66604928	     -4.89762306	     33.77864227	     91.73444792
      3.86666670	    -12.00055940	      3.61710909	     -2.85388779	     -0.05153294	      1.30596384	     -0.06564020	     14.00310033	      0.24935570	     -1.58964216	     17.03686410	      0.29734937	     15.52968861	    -13.58613351	     -7.49999987	     15.42651433	     -0.18202866	      1.69396112	     19.24186444	      0.33583389	     22.98423988	     -0.34880206	     -7.49999987	    -12.58132162	     -0.00592564	      0.16838960	      0.93175713	     -7.16939196	     -3.66064440	     37.04327311	     86.81608995	      0.92730475	     -5.81376042	     -4.86545848	     33.79542355	     91.56178714
      3.88333330	    -12.45184862	      3.62407850	     -2.77492180	     -0.04884272	      1.30063193	     -0.06827163	     14.58251905	      0.03116210	     -1.88904710	     17.91303278	      0.31264140	     15.59586655	    -14.03064454	     -7.49999987	     15.78318053	     -0.05884887	      1.64990724	     19.33820947	      0.33751543	     23.26546151	     -0.41242651	     -7.49999987	    -13.04068805	     -0.00955620	      0.09656309	      1.05739209	     -7.18635575	     -3.56068641	     37.35903467	     86.98281526	      1.27366958	     -5.88356224	     -4.85201350	     33.91482320	     91.72408464
      3.90000000	    -13.63087937	      3.68579104	     -2.56235745	     -0.04850056	      1.29927037	     -0.06988579	     16.12291635	     -0.12279406	     -1.81661406	     18.95055998	      0.33074967	     15.49805772	    -15.13466530	     -7.49999987	     17.17028961	      0.10530558	      1.71877257	     19.76440444	      0.34495393	     23.68517888	     -0.41800203	     -7.49999987	    -12.75275482	     -0.07842708	      0.18117631	      0.76447688	     -7.20795491	     -3.97315726	     38.47446614	     92.25098298	      1.50743501	     -5.96696141	     -5.23140353	     34.27928339	     97.13872360
      3.91666670	    -14.49157184	      3.77791548	     -2.36113939	     -0.04593443	      1.29572221	     -0.07074449	     17.43596345	     -0.34560760	     -1.95722220	     20.17017117	      0.35203590	     15.35379718	    -16.10582892	     -7.49999987	     18.27917982	      0.31462926	      1.85873898	     20.30793242	      0.35444029	     24.13526664	     -0.53152640	     -7.49999987	    -12.99071627	     -0.20143506	      0.05223156	      0.86349780	     -7.13797099	     -3.83913726	     39.18413029	     91.32294104	      1.76846482	     -6.02818013	     -5.39550074	     34.78873407	     96.06469625
      3.93333330	    -15.34652684	      3.89384611	     -2.06519319	     -0.04248415	      1.29120313	     -0.07207829	     18.90501972	     -0.60423459	     -2.11164482	     21.63204952	      0.37755049	     15.54249397	    -16.61117677	     -7.49999987	     19.50411048	      0.54526534	      2.01509254	     21.21614391	      0.37029157	     24.47760086	     -0.95681663	     -7.49999987	    -13.39263339	     -0.37165843	      0.00817833	      0.85022009	     -7.08931311	     -3.72112506	     40.04143014	     90.16377814	      1.99698303	     -6.09923198	     -5.39969531	     35.73490013	     94.72861416
      3.95000000	    -16.55889333	      4.05160771	     -1.77970953	     -0.03537740	      1.28802264	     -0.07316434	     20.91320150	     -0.79248021	     -1.67881080	     23.44953119	      0.40927153	     15.52849220	    -17.62348268	     -7.49999987	     21.28680375	      0.77910208	      2.10080828	     22.62911334	      0.39495253	     24.73165245	     -1.56427475	     -7.49999987	    -13.06028205	     -0.61111931	     -0.03780845	      0.97491459	     -6.93740042	     -3.73413947	     39.77912695	     93.17841931	      2.28818444	     -6.09547562	     -5.81612263	     35.65298935	     97.74175785
      3.96666670	    -17.50618136	      4.28988957	     -1.54210252	     -0.03161074	      1.28380037	     -0.07506792	     22.78536457	     -1.16793144	     -1.43129318	     25.61033887	      0.44698474	     16.08691331	    -18.11135106	     -7.49999987	     22.92673323	      1.11466522	      2.04647784	     24.29615431	      0.42404789	     25.12462201	     -2.11139894	     -7.49999987	    -13.21684498	     -0.95309138	     -0.07378330	      1.09757885	     -6.79908684	     -3.54364591	     39.73015010	     92.08403457	      2.66149959	     -6.11460331	     -5.66531237	     35.90582031	     96.42824483
      3.98333330	    -18.44274404	      4.48515658	     -1.42962617	     -0.02824145	      1.27194455	     -0.07638385	     24.72510743	     -1.50035266	     -1.20920341	     28.04051758	      0.48939936	     16.74578870	    -18.93041759	     -7.49999987	     24.85494069	      1.37065775	      1.89364573	     26.60467705	      0.46433921	     25.88827523	     -2.63345080	     -7.49999987	    -13.34252384	     -1.25196199	      0.00612746	      1.28391068	     -6.72637636	     -3.40361732	     39.73169887	     92.26829651	      3.04017585	     -6.09629421	     -5.59599132	     36.19902871	     96.58242211
      4.00000000	    -19.37441808	      4.61142350	     -1.17705172	     -0.02316637	      1.26644303	     -0.07683144	     26.91836618	     -1.60301361	     -0.58824968	     30.51120052	      0.53252091	     18.28986961	    -18.85634161	     -7.49999987	     26.92402591	      1.58458639	      1.89187130	     29.42301583	      0.51352850	     26.54139370	     -3.53237054	     -7.49999987	    -13.46835328	     -1.49699133	     -0.00285629	      1.56184661	     -6.55131671	     -3.30792980	     39.52003979	     89.60485601	      3.52531997	     -6.07793247	     -5.42285564	     36.44780531	     93.66183915
      4.01666670	    -20.74350566	      4.73567132	     -1.11850943	     -0.01958808	      1.25869277	     -0.07811792	     29.85717562	     -1.58860455	      0.27069758	     33.24136120	      0.58017120	     20.63508412	    -18.06609301	     -7.49999987	     29.70219849	      1.70319571	      1.66105161	     32.55997719	      0.56827881	     27.56104610	     -4.06749309	     -7.49999987	    -12.85203508	     -1.76677067	      0.22130621	      1.84299554	     -6.66252393	     -2.26133829	     38.83726953	     90.03951813	      4.09637148	     -6.25445525	     -4.33445407	     36.07085584	     94.07922950
      4.03333330	    -21.35619867	      4.69651509	     -1.00888344	     -0.01465020	      1.25300240	     -0.07839027	     31.51340700	     -1.48717658	      0.80522449	     35.65220037	      0.62224828	     22.84027664	    -17.33447926	     -7.49999987	     31.60271926	      1.79451185	      1.77344054	     35.50094475	      0.61960837	     28.98001924	     -4.31827972	     -7.49999987	    -13.43025923	     -1.86140426	      0.27502954	      2.42238106	     -6.41859309	     -2.51390857	     38.62422685	     87.50019363	      4.87823918	     -6.08152521	     -4.54458337	     36.29814157	     91.21878742
      4.05000000	    -22.51559315	      4.79659498	     -0.85423072	     -0.01120520	      1.24647720	     -0.07982350	     34.35985878	     -1.39641370	      1.60487511	     38.65762893	      0.67470291	     26.07181826	    -15.28543772	     -7.49999987	     34.22377036	      1.95557784	      1.66429623	     38.85844092	      0.67820774	     29.86195499	     -5.04970159	     -7.49999987	    -13.25295678	     -2.15532870	      0.49537879	      2.86590964	     -6.18138676	     -3.54381125	     38.28253810	     94.78428988	      5.85052399	     -5.97971707	     -5.12978559	     36.08134662	     98.66945238
      4.06666670	    -23.07433405	      4.79418026	     -0.85981899	     -0.00360242	      1.24160482	     -0.08140725	     35.81835613	     -1.46404568	      1.89135984	     41.14198091	      0.71806303	     27.71508297	    -14.68804242	     -7.49999987	     36.13028242	      2.08082767	      1.61056862	     42.02422609	      0.73346111	     30.97447325	     -5.24510644	     -7.49999987	    -13.63287879	     -2.26842286	      0.63397482	      3.76133723	     -6.13562801	     -3.36368649	     37.40700008	     95.32084225	      6.83452474	     -5.75611054	     -5.31892230	     35.93801955	     98.90412451
